<?xml version="1.0" encoding="UTF-8"?>
<!DOCTYPE svg PUBLIC "-//W3C//DTD SVG 1.1//EN" "http://www.w3.org/Graphics/SVG/1.1/DTD/svg11.dtd">
<svg xmlns="http://www.w3.org/2000/svg" version="1.1" width="260px" height="200px" style="shape-rendering:geometricPrecision; text-rendering:geometricPrecision; image-rendering:optimizeQuality; fill-rule:evenodd; clip-rule:evenodd" xmlns:xlink="http://www.w3.org/1999/xlink">
<g><path style="opacity:0.796" fill="#6f7168" d="M 45.5,72.5 C 45.5,72.8333 45.5,73.1667 45.5,73.5C 43.9519,73.8212 43.2852,74.8212 43.5,76.5C 42.209,76.7373 41.209,76.404 40.5,75.5C 42.0481,75.1788 42.7148,74.1788 42.5,72.5C 43.5,72.5 44.5,72.5 45.5,72.5 Z"/></g>
<g><path style="opacity:1" fill="#f59710" d="M 23.5,92.5 C 23.5,92.8333 23.5,93.1667 23.5,93.5C 19.1965,93.2648 17.5298,90.9315 18.5,86.5C 16.0968,86.393 14.2635,87.393 13,89.5C 12.5099,87.4546 12.6765,85.4546 13.5,83.5C 15.9926,82.2535 18.4926,82.2535 21,83.5C 22.876,82.381 23.7093,80.7144 23.5,78.5C 30.0029,78.1056 36.3362,78.7723 42.5,80.5C 42.4669,83.5426 41.1336,85.8759 38.5,87.5C 37.5344,85.604 37.2011,83.604 37.5,81.5C 35.396,81.2011 33.396,81.5344 31.5,82.5C 32.8532,83.5237 33.5198,84.857 33.5,86.5C 30.4212,86.2601 27.4212,86.5934 24.5,87.5C 23.5481,89.0453 23.2148,90.712 23.5,92.5 Z"/></g>
<g><path style="opacity:1" fill="#352723" d="M 40.5,75.5 C 41.209,76.404 42.209,76.7373 43.5,76.5C 43.2852,74.8212 43.9519,73.8212 45.5,73.5C 49.6836,73.8509 53.6836,74.5176 57.5,75.5C 56.5084,75.3284 55.8417,75.6618 55.5,76.5C 51.8648,75.8857 48.1981,75.5524 44.5,75.5C 44.4427,80.1989 42.7761,80.6989 39.5,77C 29.5379,74.7139 20.8713,76.8805 13.5,83.5C 6.18452,91.7562 3.68452,101.423 6,112.5C 7.68193,121.999 12.8486,128.666 21.5,132.5C 20.209,132.263 19.209,132.596 18.5,133.5C 7.60569,127.216 2.60569,117.716 3.5,105C 4.91468,81.0599 17.248,71.2265 40.5,75.5 Z"/></g>
<g><path style="opacity:1" fill="#e9951b" d="M 55.5,76.5 C 55.9659,82.665 55.2993,88.665 53.5,94.5C 49.8922,95.5932 46.2255,95.7599 42.5,95C 39.6785,88.8923 35.0118,86.8923 28.5,89C 26.6769,89.9973 25.0103,91.1639 23.5,92.5C 23.2148,90.712 23.5481,89.0453 24.5,87.5C 27.4212,86.5934 30.4212,86.2601 33.5,86.5C 33.5198,84.857 32.8532,83.5237 31.5,82.5C 33.396,81.5344 35.396,81.2011 37.5,81.5C 37.2011,83.604 37.5344,85.604 38.5,87.5C 41.1336,85.8759 42.4669,83.5426 42.5,80.5C 36.3362,78.7723 30.0029,78.1056 23.5,78.5C 23.7093,80.7144 22.876,82.381 21,83.5C 18.4926,82.2535 15.9926,82.2535 13.5,83.5C 20.8713,76.8805 29.5379,74.7139 39.5,77C 42.7761,80.6989 44.4427,80.1989 44.5,75.5C 48.1981,75.5524 51.8648,75.8857 55.5,76.5 Z"/></g>
<g><path style="opacity:0.084" fill="#efefef" d="M 44.5,140.5 C 44.5,140.167 44.5,139.833 44.5,139.5C 47.6599,138.683 50.3266,137.016 52.5,134.5C 53.4287,135.689 53.762,137.022 53.5,138.5C 58.1667,138.5 62.8333,138.5 67.5,138.5C 67.3505,137.448 67.5172,136.448 68,135.5C 75.3997,140.993 82.5664,140.66 89.5,134.5C 90.1067,134.624 90.44,134.957 90.5,135.5C 92.223,136.8 94.3897,137.467 97,137.5C 106.817,138.311 116.651,138.644 126.5,138.5C 126.5,136.833 126.5,135.167 126.5,133.5C 127.5,133.5 128.5,133.5 129.5,133.5C 129.232,135.099 129.566,136.432 130.5,137.5C 137.313,138.491 144.313,138.825 151.5,138.5C 151.343,137.127 151.51,135.793 152,134.5C 160.589,138.992 169.755,140.658 179.5,139.5C 182.144,139.84 184.477,139.173 186.5,137.5C 194.003,140.709 200.836,139.709 207,134.5C 207.49,135.793 207.657,137.127 207.5,138.5C 214.833,138.5 222.167,138.5 229.5,138.5C 229.5,136.833 229.5,135.167 229.5,133.5C 230.5,133.5 231.5,133.5 232.5,133.5C 232.5,135.167 232.5,136.833 232.5,138.5C 238.167,138.5 243.833,138.5 249.5,138.5C 250.833,138.5 252.167,138.5 253.5,138.5C 253.5,134.833 253.5,131.167 253.5,127.5C 252.5,127.5 251.5,127.5 250.5,127.5C 250.666,121.491 250.499,115.491 250,109.5C 249.275,107.051 248.275,104.717 247,102.5C 243.831,98.2999 240.331,94.4666 236.5,91C 232.637,89.6463 228.637,89.1463 224.5,89.5C 224.5,86.5 224.5,83.5 224.5,80.5C 222.833,80.5 221.167,80.5 219.5,80.5C 219.5,78.1667 219.5,75.8333 219.5,73.5C 212.492,73.3337 205.492,73.5004 198.5,74C 197.533,78.4014 197.2,82.9014 197.5,87.5C 198.5,87.5 199.5,87.5 200.5,87.5C 197.5,88.1667 194.5,88.8333 191.5,89.5C 191.5,89.8333 191.5,90.1667 191.5,90.5C 183.732,88.2096 176.732,89.543 170.5,94.5C 159.767,87.31 149.601,87.9767 140,96.5C 132.935,88.8088 124.769,87.4755 115.5,92.5C 114.501,89.7389 112.501,88.4056 109.5,88.5C 105.306,88.8517 101.306,89.5184 97.5,90.5C 96.8333,90.5 96.1667,90.5 95.5,90.5C 91.5,90.5 87.5,90.5 83.5,90.5C 83.719,91.675 83.3857,92.675 82.5,93.5C 75.9313,91.2861 69.2646,90.9527 62.5,92.5C 62.5,91.1667 62.5,89.8333 62.5,88.5C 62.5,86.1667 62.5,83.8333 62.5,81.5C 60.8333,81.5 59.1667,81.5 57.5,81.5C 57.5,79.5 57.5,77.5 57.5,75.5C 53.6836,74.5176 49.6836,73.8509 45.5,73.5C 45.5,73.1667 45.5,72.8333 45.5,72.5C 45.7352,71.9033 46.2352,71.5699 47,71.5C 50.8416,72.2793 54.6749,73.1127 58.5,74C 59.1029,75.8254 59.7696,77.6587 60.5,79.5C 61.7362,80.2458 63.0695,80.5792 64.5,80.5C 63.8081,83.897 63.8081,87.2303 64.5,90.5C 70.0762,88.2383 75.5762,88.5717 81,91.5C 81.5,91 82,90.5 82.5,90C 91.3729,89.5686 100.206,88.7353 109,87.5C 110.833,87.6667 112.667,87.8333 114.5,88C 115.126,88.7504 115.626,89.5838 116,90.5C 124.792,86.0364 132.959,87.0364 140.5,93.5C 147.47,88.8038 155.136,87.3038 163.5,89C 166.112,89.6395 168.446,90.8062 170.5,92.5C 172.336,91.081 174.336,89.9143 176.5,89C 183.177,88.5469 189.844,88.0469 196.5,87.5C 196.197,82.57 196.531,77.7367 197.5,73C 205.159,72.5003 212.826,72.3336 220.5,72.5C 220.338,74.5273 220.505,76.5273 221,78.5C 222.356,79.3802 223.856,79.7135 225.5,79.5C 225.5,82.1667 225.5,84.8333 225.5,87.5C 230.034,87.267 234.368,88.1003 238.5,90C 243.86,95.0196 248.027,100.853 251,107.5C 251.333,113.5 251.667,119.5 252,125.5C 253.011,126.337 254.178,126.67 255.5,126.5C 255.5,130.833 255.5,135.167 255.5,139.5C 247.5,139.5 239.5,139.5 231.5,139.5C 231.167,132.833 230.833,132.833 230.5,139.5C 221.915,139.817 213.415,139.483 205,138.5C 199.438,140.671 193.772,141.005 188,139.5C 186.352,141.028 184.352,141.695 182,141.5C 175.178,140.855 168.345,140.355 161.5,140C 158.868,139.551 156.368,138.717 154,137.5C 143.12,138.8 132.12,139.467 121,139.5C 110.5,139.333 100,139.167 89.5,139C 89,138.5 88.5,138 88,137.5C 85.091,139.858 81.7577,140.858 78,140.5C 69.5476,140.098 61.0476,140.098 52.5,140.5C 52.372,137.226 51.0387,137.059 48.5,140C 47.2068,140.49 45.8734,140.657 44.5,140.5 Z"/></g>
<g><path style="opacity:0.333" fill="#aaa8a5" d="M 200.5,87.5 C 201.978,87.238 203.311,87.5713 204.5,88.5C 200.217,89.4922 195.884,89.8256 191.5,89.5C 194.5,88.8333 197.5,88.1667 200.5,87.5 Z"/></g>
<g><path style="opacity:1" fill="#120c0b" d="M 57.5,75.5 C 57.5,77.5 57.5,79.5 57.5,81.5C 59.1667,81.5 60.8333,81.5 62.5,81.5C 62.5,83.8333 62.5,86.1667 62.5,88.5C 61.5269,90.9479 61.1936,93.6146 61.5,96.5C 60.8333,96.8333 60.1667,97.1667 59.5,97.5C 58.5,97.5 57.5,97.5 56.5,97.5C 56.6495,98.552 56.4828,99.552 56,100.5C 54.3775,101.099 52.8775,101.766 51.5,102.5C 50.0222,102.762 48.6888,102.429 47.5,101.5C 47.0576,100.261 46.3909,99.2613 45.5,98.5C 44.6868,97.3473 43.6868,97.3473 42.5,98.5C 41.4777,98.1445 40.811,97.4778 40.5,96.5C 38.7943,94.4642 36.461,93.4642 33.5,93.5C 33.5,94.8333 33.5,96.1667 33.5,97.5C 29.3854,101.901 27.3854,107.234 27.5,113.5C 27.3404,115.153 26.6737,116.486 25.5,117.5C 25.1667,117.5 24.8333,117.5 24.5,117.5C 19.6491,109.668 19.3157,101.668 23.5,93.5C 23.5,93.1667 23.5,92.8333 23.5,92.5C 25.0103,91.1639 26.6769,89.9973 28.5,89C 35.0118,86.8923 39.6785,88.8923 42.5,95C 46.2255,95.7599 49.8922,95.5932 53.5,94.5C 55.2993,88.665 55.9659,82.665 55.5,76.5C 55.8417,75.6618 56.5084,75.3284 57.5,75.5 Z"/></g>
<g><path style="opacity:0.863" fill="#302517" d="M 62.5,88.5 C 62.5,89.8333 62.5,91.1667 62.5,92.5C 69.2646,90.9527 75.9313,91.2861 82.5,93.5C 83.3857,92.675 83.719,91.675 83.5,90.5C 87.5,90.5 91.5,90.5 95.5,90.5C 92.5,91.1667 89.5,91.8333 86.5,92.5C 85.5655,93.5676 85.2322,94.901 85.5,96.5C 79.101,93.7987 72.4344,92.9654 65.5,94C 64.0161,94.6622 62.6828,95.4955 61.5,96.5C 61.1936,93.6146 61.5269,90.9479 62.5,88.5 Z"/></g>
<g><path style="opacity:0.996" fill="#f8f8f7" d="M 143.5,128.5 C 137.926,130.453 131.926,131.12 125.5,130.5C 125.5,127.833 125.5,125.167 125.5,122.5C 126.5,122.5 127.5,122.5 128.5,122.5C 128.666,117.489 128.499,112.489 128,107.5C 122.628,101.762 118.295,102.429 115,109.5C 114.501,113.821 114.334,118.154 114.5,122.5C 116.167,122.5 117.833,122.5 119.5,122.5C 119.5,125.5 119.5,128.5 119.5,131.5C 112.5,131.5 105.5,131.5 98.5,131.5C 98.5,128.5 98.5,125.5 98.5,122.5C 100.167,122.5 101.833,122.5 103.5,122.5C 103.5,115.5 103.5,108.5 103.5,101.5C 101.833,101.5 100.167,101.5 98.5,101.5C 98.5,99.8333 98.5,98.1667 98.5,96.5C 98.5,95.1667 98.5,93.8333 98.5,92.5C 99.791,92.7373 100.791,92.404 101.5,91.5C 102.167,91.5 102.833,91.5 103.5,91.5C 106.141,90.7369 108.808,90.5702 111.5,91C 112.542,92.918 113.708,94.7513 115,96.5C 120.296,91.283 126.463,90.1163 133.5,93C 135.557,94.7194 137.224,96.7194 138.5,99C 133.392,109.984 135.059,119.817 143.5,128.5 Z M 124.5,113.5 C 125.793,115.364 125.793,117.364 124.5,119.5C 123.481,117.54 123.481,115.54 124.5,113.5 Z"/></g>
<g><path style="opacity:1" fill="#454042" d="M 40.5,96.5 C 37.9165,95.0623 35.5832,95.3956 33.5,97.5C 33.5,96.1667 33.5,94.8333 33.5,93.5C 36.461,93.4642 38.7943,94.4642 40.5,96.5 Z"/></g>
<g><path style="opacity:1" fill="#f7c30f" d="M 188.5,92.5 C 189.372,96.0894 191.039,96.4227 193.5,93.5C 196.086,92.52 198.753,92.1866 201.5,92.5C 201.5,96.1667 201.5,99.8333 201.5,103.5C 198.5,103.5 195.5,103.5 192.5,103.5C 190.678,100.5 188.178,99.833 185,101.5C 184.333,102.5 184.333,103.5 185,104.5C 189.581,106.873 194.081,109.373 198.5,112C 199.823,112.816 200.489,113.983 200.5,115.5C 200.163,117.672 199.163,119.505 197.5,121C 198.287,123.099 198.62,125.266 198.5,127.5C 195.896,128.987 192.396,129.987 188,130.5C 183.893,129.415 179.893,128.082 176,126.5C 172.988,128.263 173.488,129.43 177.5,130C 175.19,130.497 172.857,130.663 170.5,130.5C 170.5,126.833 170.5,123.167 170.5,119.5C 173.279,119.279 175.946,119.612 178.5,120.5C 180.836,122.391 183.502,122.891 186.5,122C 187.791,120.708 187.791,119.542 186.5,118.5C 186.047,117.542 185.381,116.708 184.5,116C 180.025,114.598 176.025,112.431 172.5,109.5C 168.253,101.383 170.253,95.5496 178.5,92C 182.027,91.1925 185.36,91.3592 188.5,92.5 Z"/></g>
<g><path style="opacity:1" fill="#c8a428" d="M 192.5,103.5 C 195.5,103.5 198.5,103.5 201.5,103.5C 201.5,99.8333 201.5,96.1667 201.5,92.5C 198.753,92.1866 196.086,92.52 193.5,93.5C 191.039,96.4227 189.372,96.0894 188.5,92.5C 188.833,92.5 189.167,92.5 189.5,92.5C 191.598,93.9143 192.598,93.2476 192.5,90.5C 195.881,90.4595 199.214,90.7929 202.5,91.5C 202.5,95.8333 202.5,100.167 202.5,104.5C 198.958,104.813 195.625,104.479 192.5,103.5 Z"/></g>
<g><path style="opacity:1" fill="#97938c" d="M 101.5,91.5 C 100.791,92.404 99.791,92.7373 98.5,92.5C 98.5,93.8333 98.5,95.1667 98.5,96.5C 97.5489,95.0813 97.2155,93.4147 97.5,91.5C 98.8333,91.5 100.167,91.5 101.5,91.5 Z"/></g>
<g><path style="opacity:0.981" fill="#12100f" d="M 249.5,138.5 C 244.36,137.512 239.026,137.179 233.5,137.5C 233.768,135.901 233.434,134.568 232.5,133.5C 231.5,133.5 230.5,133.5 229.5,133.5C 229.5,135.167 229.5,136.833 229.5,138.5C 222.167,138.5 214.833,138.5 207.5,138.5C 207.657,137.127 207.49,135.793 207,134.5C 200.836,139.709 194.003,140.709 186.5,137.5C 184.477,139.173 182.144,139.84 179.5,139.5C 177.735,138.539 175.735,138.205 173.5,138.5C 173.762,137.022 173.429,135.689 172.5,134.5C 170.664,133.972 168.997,133.306 167.5,132.5C 167.5,128.833 167.5,125.167 167.5,121.5C 164.813,121.664 162.146,121.497 159.5,121C 158.09,120.632 157.09,119.799 156.5,118.5C 160.906,115.438 165.573,112.772 170.5,110.5C 171.167,110.167 171.833,109.833 172.5,109.5C 176.025,112.431 180.025,114.598 184.5,116C 185.381,116.708 186.047,117.542 186.5,118.5C 186.631,119.376 186.298,120.043 185.5,120.5C 182.905,119.287 180.405,117.953 178,116.5C 175.004,117.035 172.171,117.702 169.5,118.5C 169.5,123.167 169.5,127.833 169.5,132.5C 173.354,132.828 177.021,132.162 180.5,130.5C 186.853,133.368 193.02,133.034 199,129.5C 199.497,126.854 199.664,124.187 199.5,121.5C 200.5,121.5 201.5,121.5 202.5,121.5C 202.741,119.102 202.074,117.102 200.5,115.5C 200.489,113.983 199.823,112.816 198.5,112C 194.081,109.373 189.581,106.873 185,104.5C 184.333,103.5 184.333,102.5 185,101.5C 188.178,99.833 190.678,100.5 192.5,103.5C 195.625,104.479 198.958,104.813 202.5,104.5C 202.5,100.167 202.5,95.8333 202.5,91.5C 199.214,90.7929 195.881,90.4595 192.5,90.5C 192.598,93.2476 191.598,93.9143 189.5,92.5C 190.167,91.8333 190.833,91.1667 191.5,90.5C 191.5,90.1667 191.5,89.8333 191.5,89.5C 195.884,89.8256 200.217,89.4922 204.5,88.5C 203.311,87.5713 201.978,87.238 200.5,87.5C 199.5,87.5 198.5,87.5 197.5,87.5C 197.2,82.9014 197.533,78.4014 198.5,74C 205.492,73.5004 212.492,73.3337 219.5,73.5C 219.5,75.8333 219.5,78.1667 219.5,80.5C 221.167,80.5 222.833,80.5 224.5,80.5C 224.5,83.5 224.5,86.5 224.5,89.5C 228.637,89.1463 232.637,89.6463 236.5,91C 240.331,94.4666 243.831,98.2999 247,102.5C 248.275,104.717 249.275,107.051 250,109.5C 250.499,115.491 250.666,121.491 250.5,127.5C 251.5,127.5 252.5,127.5 253.5,127.5C 253.5,131.167 253.5,134.833 253.5,138.5C 252.167,138.5 250.833,138.5 249.5,138.5 Z M 226.5,114.5 C 227.788,116.035 227.788,117.701 226.5,119.5C 225.948,117.997 225.948,116.331 226.5,114.5 Z"/></g>
<g><path style="opacity:1" fill="#f8f8f8" d="M 221.5,123.5 C 221.5,125.833 221.5,128.167 221.5,130.5C 215.167,130.5 208.833,130.5 202.5,130.5C 202.5,128.167 202.5,125.833 202.5,123.5C 203.791,123.737 204.791,123.404 205.5,122.5C 206.825,110.66 206.825,98.6602 205.5,86.5C 203.591,85.6518 201.591,85.3184 199.5,85.5C 199.216,82.2234 199.549,79.0567 200.5,76C 206.157,75.5006 211.824,75.3339 217.5,75.5C 217.5,81.5 217.5,87.5 217.5,93.5C 222.337,91.683 227.337,91.183 232.5,92C 238.41,93.5787 241.91,97.412 243,103.5C 243.5,109.825 243.666,116.158 243.5,122.5C 244.5,122.5 245.5,122.5 246.5,122.5C 246.5,125.5 246.5,128.5 246.5,131.5C 240.167,131.5 233.833,131.5 227.5,131.5C 227.5,128.5 227.5,125.5 227.5,122.5C 228.822,122.67 229.989,122.337 231,121.5C 231.667,117.167 231.667,112.833 231,108.5C 226.578,101.941 222.245,101.941 218,108.5C 217.501,113.155 217.334,117.821 217.5,122.5C 219.099,122.232 220.432,122.566 221.5,123.5 Z M 226.5,114.5 C 225.948,116.331 225.948,117.997 226.5,119.5C 227.788,117.701 227.788,116.035 226.5,114.5 Z"/></g>
<g><path style="opacity:1" fill="#e7951c" d="M 13.5,83.5 C 12.6765,85.4546 12.5099,87.4546 13,89.5C 14.2635,87.393 16.0968,86.393 18.5,86.5C 17.5298,90.9315 19.1965,93.2648 23.5,93.5C 19.3157,101.668 19.6491,109.668 24.5,117.5C 23.8826,117.611 23.3826,117.944 23,118.5C 21.0972,116.559 20.2639,114.226 20.5,111.5C 18.6412,111.539 17.3079,110.706 16.5,109C 17.6023,106.599 17.769,104.099 17,101.5C 15.9827,103.376 15.1494,105.376 14.5,107.5C 14.1667,106.333 13.8333,105.167 13.5,104C 14.3357,101.51 15.0024,99.0103 15.5,96.5C 16.552,96.6495 17.552,96.4828 18.5,96C 17.3826,94.1079 15.7159,93.2746 13.5,93.5C 13.6602,95.1992 13.4935,96.8659 13,98.5C 12,98.8333 11,99.1667 10,99.5C 8.06817,104.139 8.06817,108.806 10,113.5C 11.0113,114.337 12.1779,114.67 13.5,114.5C 12.0545,117.338 11.5545,120.338 12,123.5C 16.136,123.069 18.9693,125.069 20.5,129.5C 22.1353,130.681 23.802,130.681 25.5,129.5C 26.7112,130.274 26.7112,131.107 25.5,132C 30.5276,132.588 35.5276,132.422 40.5,131.5C 40.0825,132.222 39.4158,132.722 38.5,133C 32.7821,133.74 27.1154,133.573 21.5,132.5C 12.8486,128.666 7.68193,121.999 6,112.5C 3.68452,101.423 6.18452,91.7562 13.5,83.5 Z"/></g>
<g><path style="opacity:0.227" fill="#c0bdb9" d="M 45.5,98.5 C 46.3909,99.2613 47.0576,100.261 47.5,101.5C 48.6888,102.429 50.0222,102.762 51.5,102.5C 46.8913,103.529 40.2246,103.863 31.5,103.5C 35.97,102.514 40.6367,102.181 45.5,102.5C 45.5,101.167 45.5,99.8333 45.5,98.5 Z"/></g>
<g><path style="opacity:0.967" fill="#312118" d="M 59.5,97.5 C 53.9441,107.711 54.2774,117.711 60.5,127.5C 60.7678,129.099 60.4345,130.432 59.5,131.5C 59.539,128.911 58.539,126.911 56.5,125.5C 54.4196,119.016 53.4196,112.349 53.5,105.5C 46.8333,105.5 40.1667,105.5 33.5,105.5C 33.5,108.5 33.5,111.5 33.5,114.5C 35.8333,114.5 38.1667,114.5 40.5,114.5C 39.4423,120.706 35.7756,122.872 29.5,121C 27.9069,120.051 26.5736,118.885 25.5,117.5C 26.6737,116.486 27.3404,115.153 27.5,113.5C 28.2344,114.878 28.9011,116.378 29.5,118C 32.3787,118.874 35.0454,118.54 37.5,117C 35.5273,116.505 33.5273,116.338 31.5,116.5C 30.3376,112.02 30.3376,107.687 31.5,103.5C 40.2246,103.863 46.8913,103.529 51.5,102.5C 52.8775,101.766 54.3775,101.099 56,100.5C 56.4828,99.552 56.6495,98.552 56.5,97.5C 57.5,97.5 58.5,97.5 59.5,97.5 Z"/></g>
<g><path style="opacity:0.979" fill="#100f0f" d="M 125.5,130.5 C 131.645,131.49 137.978,131.823 144.5,131.5C 144.5,130.5 144.5,129.5 144.5,128.5C 144.5,127.833 144.833,127.5 145.5,127.5C 152.298,131.365 159.631,133.032 167.5,132.5C 168.997,133.306 170.664,133.972 172.5,134.5C 173.429,135.689 173.762,137.022 173.5,138.5C 175.735,138.205 177.735,138.539 179.5,139.5C 169.755,140.658 160.589,138.992 152,134.5C 151.51,135.793 151.343,137.127 151.5,138.5C 144.313,138.825 137.313,138.491 130.5,137.5C 130.5,135.833 130.5,134.167 130.5,132.5C 128.901,132.232 127.568,132.566 126.5,133.5C 126.5,135.167 126.5,136.833 126.5,138.5C 116.651,138.644 106.817,138.311 97,137.5C 94.3897,137.467 92.223,136.8 90.5,135.5C 93.8992,135.391 96.5659,134.058 98.5,131.5C 105.5,131.5 112.5,131.5 119.5,131.5C 119.5,128.5 119.5,125.5 119.5,122.5C 117.833,122.5 116.167,122.5 114.5,122.5C 114.334,118.154 114.501,113.821 115,109.5C 118.295,102.429 122.628,101.762 128,107.5C 128.499,112.489 128.666,117.489 128.5,122.5C 127.5,122.5 126.5,122.5 125.5,122.5C 125.5,125.167 125.5,127.833 125.5,130.5 Z M 124.5,113.5 C 123.481,115.54 123.481,117.54 124.5,119.5C 125.793,117.364 125.793,115.364 124.5,113.5 Z"/></g>
<g><path style="opacity:1" fill="#231a17" d="M 191.5,90.5 C 190.833,91.1667 190.167,91.8333 189.5,92.5C 189.167,92.5 188.833,92.5 188.5,92.5C 185.36,91.3592 182.027,91.1925 178.5,92C 170.253,95.5496 168.253,101.383 172.5,109.5C 171.833,109.833 171.167,110.167 170.5,110.5C 168.694,105.533 168.027,100.533 168.5,95.5C 162.065,91.1582 155.399,90.4916 148.5,93.5C 144.254,94.7451 141.254,97.4118 139.5,101.5C 138.048,103.848 137.382,106.514 137.5,109.5C 137.507,111.369 137.84,113.036 138.5,114.5C 139.006,119.848 141.34,124.181 145.5,127.5C 144.833,127.5 144.5,127.833 144.5,128.5C 144.167,128.5 143.833,128.5 143.5,128.5C 135.059,119.817 133.392,109.984 138.5,99C 137.224,96.7194 135.557,94.7194 133.5,93C 126.463,90.1163 120.296,91.283 115,96.5C 113.708,94.7513 112.542,92.918 111.5,91C 108.808,90.5702 106.141,90.7369 103.5,91.5C 101.735,90.5386 99.7354,90.2053 97.5,90.5C 101.306,89.5184 105.306,88.8517 109.5,88.5C 112.501,88.4056 114.501,89.7389 115.5,92.5C 124.769,87.4755 132.935,88.8088 140,96.5C 149.601,87.9767 159.767,87.31 170.5,94.5C 176.732,89.543 183.732,88.2096 191.5,90.5 Z"/></g>
<g><path style="opacity:1" fill="#d89431" d="M 56.5,125.5 C 55.2101,124.942 54.3768,123.942 54,122.5C 52.9054,117.22 52.4054,111.887 52.5,106.5C 46.5,106.5 40.5,106.5 34.5,106.5C 34.5,108.833 34.5,111.167 34.5,113.5C 36.7354,113.205 38.7354,113.539 40.5,114.5C 38.1667,114.5 35.8333,114.5 33.5,114.5C 33.5,111.5 33.5,108.5 33.5,105.5C 40.1667,105.5 46.8333,105.5 53.5,105.5C 53.4196,112.349 54.4196,119.016 56.5,125.5 Z"/></g>
<g><path style="opacity:1" fill="#f7c30f" d="M 86.5,92.5 C 89.7766,92.2161 92.9433,92.5495 96,93.5C 96.0895,99.7299 95.5895,105.897 94.5,112C 94.5417,115.251 94.875,118.417 95.5,121.5C 95.5,124.5 95.5,127.5 95.5,130.5C 92.1667,130.5 88.8333,130.5 85.5,130.5C 84.8386,129.282 84.1719,127.949 83.5,126.5C 80.6008,130.197 76.7674,131.864 72,131.5C 67.5936,131.709 63.7602,130.376 60.5,127.5C 54.2774,117.711 53.9441,107.711 59.5,97.5C 60.1667,97.1667 60.8333,96.8333 61.5,96.5C 62.6828,95.4955 64.0161,94.6622 65.5,94C 72.4344,92.9654 79.101,93.7987 85.5,96.5C 85.2322,94.901 85.5655,93.5676 86.5,92.5 Z"/></g>
<g><path style="opacity:0.978" fill="#120902" d="M 71.5,103.5 C 79.5331,102.922 83.0331,106.588 82,114.5C 77.44,122.47 72.7733,122.47 68,114.5C 66.8824,110.077 68.0491,106.41 71.5,103.5 Z"/></g>
<g><path style="opacity:1" fill="#a5701e" d="M 139.5,101.5 C 139.5,102.833 139.5,104.167 139.5,105.5C 138.523,108.287 138.19,111.287 138.5,114.5C 137.84,113.036 137.507,111.369 137.5,109.5C 137.382,106.514 138.048,103.848 139.5,101.5 Z"/></g>
<g><path style="opacity:1" fill="#e7951d" d="M 170.5,110.5 C 165.573,112.772 160.906,115.438 156.5,118.5C 157.09,119.799 158.09,120.632 159.5,121C 162.146,121.497 164.813,121.664 167.5,121.5C 167.5,125.167 167.5,128.833 167.5,132.5C 159.631,133.032 152.298,131.365 145.5,127.5C 141.34,124.181 139.006,119.848 138.5,114.5C 138.19,111.287 138.523,108.287 139.5,105.5C 139.425,109.897 139.925,114.23 141,118.5C 144.072,121.668 147.238,124.834 150.5,128C 153.053,128.851 155.386,128.518 157.5,127C 157.167,126.667 156.833,126.333 156.5,126C 158.158,125.275 158.658,124.108 158,122.5C 156.243,121.881 155.076,120.714 154.5,119C 155.544,115.792 157.21,112.959 159.5,110.5C 159.113,109.28 158.28,108.613 157,108.5C 155.403,109.885 153.57,110.551 151.5,110.5C 154.767,108.189 158.1,105.856 161.5,103.5C 157.444,99.3619 153.61,99.6953 150,104.5C 149.506,106.134 149.34,107.801 149.5,109.5C 148.527,107.052 148.194,104.385 148.5,101.5C 149.5,101.5 150.5,101.5 151.5,101.5C 151.5,100.167 151.5,98.8333 151.5,97.5C 154.799,98.3761 158.132,98.5428 161.5,98C 162.91,97.6322 163.91,96.7989 164.5,95.5C 159.44,92.4313 154.106,91.7646 148.5,93.5C 155.399,90.4916 162.065,91.1582 168.5,95.5C 168.027,100.533 168.694,105.533 170.5,110.5 Z"/></g>
<g><path style="opacity:1" fill="#150501" d="M 151.5,110.5 C 150.833,110.167 150.167,109.833 149.5,109.5C 149.34,107.801 149.506,106.134 150,104.5C 153.61,99.6953 157.444,99.3619 161.5,103.5C 158.1,105.856 154.767,108.189 151.5,110.5 Z"/></g>
<g><path style="opacity:0.124" fill="#e9e9e9" d="M 227.5,110.5 C 229.402,113.337 230.069,116.671 229.5,120.5C 228.178,120.33 227.011,120.663 226,121.5C 225.667,123.5 225.333,125.5 225,127.5C 224.333,123.167 224.333,118.833 225,114.5C 225.662,113.016 226.496,111.683 227.5,110.5 Z M 226.5,114.5 C 225.948,116.331 225.948,117.997 226.5,119.5C 227.788,117.701 227.788,116.035 226.5,114.5 Z"/></g>
<g><path style="opacity:0.125" fill="#f5f5f5" d="M 123.5,120.5 C 122.549,119.081 122.216,117.415 122.5,115.5C 123.031,113.456 124.198,111.789 126,110.5C 126.498,113.817 126.665,117.15 126.5,120.5C 125.5,120.5 124.5,120.5 123.5,120.5 Z M 124.5,113.5 C 123.481,115.54 123.481,117.54 124.5,119.5C 125.793,117.364 125.793,115.364 124.5,113.5 Z"/></g>
<g><path style="opacity:0.596" fill="#b8b9b7" d="M 200.5,112.5 C 201.568,111.566 202.901,111.232 204.5,111.5C 204.66,113.199 204.494,114.866 204,116.5C 203.051,114.907 201.885,113.574 200.5,112.5 Z"/></g>
<g><path style="opacity:0.145" fill="#d2d6d4" d="M 77.5,110.5 C 78.5,110.5 79.5,110.5 80.5,110.5C 80.8802,115.11 78.8802,117.776 74.5,118.5C 74.3939,115.385 75.3939,112.719 77.5,110.5 Z"/></g>
<g><path style="opacity:1" fill="#f29714" d="M 24.5,117.5 C 24.8333,117.5 25.1667,117.5 25.5,117.5C 26.5736,118.885 27.9069,120.051 29.5,121C 35.7756,122.872 39.4423,120.706 40.5,114.5C 38.7354,113.539 36.7354,113.205 34.5,113.5C 34.5,111.167 34.5,108.833 34.5,106.5C 40.5,106.5 46.5,106.5 52.5,106.5C 52.4054,111.887 52.9054,117.22 54,122.5C 54.3768,123.942 55.2101,124.942 56.5,125.5C 58.539,126.911 59.539,128.911 59.5,131.5C 55.8333,131.5 52.1667,131.5 48.5,131.5C 48.7692,129.571 48.2692,127.905 47,126.5C 45.2419,128.765 43.0752,130.432 40.5,131.5C 35.5276,132.422 30.5276,132.588 25.5,132C 26.7112,131.107 26.7112,130.274 25.5,129.5C 23.802,130.681 22.1353,130.681 20.5,129.5C 18.9693,125.069 16.136,123.069 12,123.5C 11.5545,120.338 12.0545,117.338 13.5,114.5C 12.1779,114.67 11.0113,114.337 10,113.5C 8.06817,108.806 8.06817,104.139 10,99.5C 11,99.1667 12,98.8333 13,98.5C 13.4935,96.8659 13.6602,95.1992 13.5,93.5C 15.7159,93.2746 17.3826,94.1079 18.5,96C 17.552,96.4828 16.552,96.6495 15.5,96.5C 15.0024,99.0103 14.3357,101.51 13.5,104C 13.8333,105.167 14.1667,106.333 14.5,107.5C 15.1494,105.376 15.9827,103.376 17,101.5C 17.769,104.099 17.6023,106.599 16.5,109C 17.3079,110.706 18.6412,111.539 20.5,111.5C 20.2639,114.226 21.0972,116.559 23,118.5C 23.3826,117.944 23.8826,117.611 24.5,117.5 Z"/></g>
<g><path style="opacity:1" fill="#362716" d="M 186.5,118.5 C 187.791,119.542 187.791,120.708 186.5,122C 183.502,122.891 180.836,122.391 178.5,120.5C 176.012,118.612 173.012,117.945 169.5,118.5C 172.171,117.702 175.004,117.035 178,116.5C 180.405,117.953 182.905,119.287 185.5,120.5C 186.298,120.043 186.631,119.376 186.5,118.5 Z"/></g>
<g><path style="opacity:1" fill="#f39712" d="M 149.5,109.5 C 150.167,109.833 150.833,110.167 151.5,110.5C 153.57,110.551 155.403,109.885 157,108.5C 158.28,108.613 159.113,109.28 159.5,110.5C 157.21,112.959 155.544,115.792 154.5,119C 155.076,120.714 156.243,121.881 158,122.5C 158.658,124.108 158.158,125.275 156.5,126C 156.833,126.333 157.167,126.667 157.5,127C 155.386,128.518 153.053,128.851 150.5,128C 147.238,124.834 144.072,121.668 141,118.5C 139.925,114.23 139.425,109.897 139.5,105.5C 139.5,104.167 139.5,102.833 139.5,101.5C 141.254,97.4118 144.254,94.7451 148.5,93.5C 154.106,91.7646 159.44,92.4313 164.5,95.5C 163.91,96.7989 162.91,97.6322 161.5,98C 158.132,98.5428 154.799,98.3761 151.5,97.5C 151.5,98.8333 151.5,100.167 151.5,101.5C 150.5,101.5 149.5,101.5 148.5,101.5C 148.194,104.385 148.527,107.052 149.5,109.5 Z"/></g>
<g><path style="opacity:0.792" fill="#949494" d="M 122.5,115.5 C 122.216,117.415 122.549,119.081 123.5,120.5C 123.808,122.924 123.474,125.257 122.5,127.5C 121.191,123.351 121.191,119.351 122.5,115.5 Z"/></g>
<g><path style="opacity:1" fill="#e0b621" d="M 200.5,115.5 C 202.074,117.102 202.741,119.102 202.5,121.5C 201.5,121.5 200.5,121.5 199.5,121.5C 199.664,124.187 199.497,126.854 199,129.5C 193.02,133.034 186.853,133.368 180.5,130.5C 177.021,132.162 173.354,132.828 169.5,132.5C 169.5,127.833 169.5,123.167 169.5,118.5C 173.012,117.945 176.012,118.612 178.5,120.5C 175.946,119.612 173.279,119.279 170.5,119.5C 170.5,123.167 170.5,126.833 170.5,130.5C 172.857,130.663 175.19,130.497 177.5,130C 173.488,129.43 172.988,128.263 176,126.5C 179.893,128.082 183.893,129.415 188,130.5C 192.396,129.987 195.896,128.987 198.5,127.5C 198.62,125.266 198.287,123.099 197.5,121C 199.163,119.505 200.163,117.672 200.5,115.5 Z"/></g>
<g><path style="opacity:1" fill="#997e1c" d="M 95.5,121.5 C 96.4794,124.625 96.8128,127.958 96.5,131.5C 92.6286,131.815 88.9619,131.482 85.5,130.5C 88.8333,130.5 92.1667,130.5 95.5,130.5C 95.5,127.5 95.5,124.5 95.5,121.5 Z"/></g>
<g><path style="opacity:1" fill="#b2b3b2" d="M 143.5,128.5 C 143.833,128.5 144.167,128.5 144.5,128.5C 144.5,129.5 144.5,130.5 144.5,131.5C 137.978,131.823 131.645,131.49 125.5,130.5C 131.926,131.12 137.926,130.453 143.5,128.5 Z"/></g>
<g><path style="opacity:1" fill="#bebfbf" d="M 205.5,122.5 C 204.791,123.404 203.791,123.737 202.5,123.5C 202.5,125.833 202.5,128.167 202.5,130.5C 208.833,130.5 215.167,130.5 221.5,130.5C 221.5,128.167 221.5,125.833 221.5,123.5C 222.473,125.948 222.806,128.615 222.5,131.5C 215.5,131.5 208.5,131.5 201.5,131.5C 201.5,128.5 201.5,125.5 201.5,122.5C 202.833,122.5 204.167,122.5 205.5,122.5 Z"/></g>
<g><path style="opacity:0.975" fill="#130e09" d="M 95.5,90.5 C 96.1667,90.5 96.8333,90.5 97.5,90.5C 99.7354,90.2053 101.735,90.5386 103.5,91.5C 102.833,91.5 102.167,91.5 101.5,91.5C 100.167,91.5 98.8333,91.5 97.5,91.5C 97.2155,93.4147 97.5489,95.0813 98.5,96.5C 98.5,98.1667 98.5,99.8333 98.5,101.5C 100.167,101.5 101.833,101.5 103.5,101.5C 103.5,108.5 103.5,115.5 103.5,122.5C 101.833,122.5 100.167,122.5 98.5,122.5C 98.5,125.5 98.5,128.5 98.5,131.5C 96.5659,134.058 93.8992,135.391 90.5,135.5C 90.44,134.957 90.1067,134.624 89.5,134.5C 82.5664,140.66 75.3997,140.993 68,135.5C 67.5172,136.448 67.3505,137.448 67.5,138.5C 62.8333,138.5 58.1667,138.5 53.5,138.5C 53.762,137.022 53.4287,135.689 52.5,134.5C 50.3266,137.016 47.6599,138.683 44.5,139.5C 39.5231,140.69 34.5231,140.69 29.5,139.5C 25.0666,138.786 21.4,136.786 18.5,133.5C 19.209,132.596 20.209,132.263 21.5,132.5C 27.1154,133.573 32.7821,133.74 38.5,133C 39.4158,132.722 40.0825,132.222 40.5,131.5C 43.0752,130.432 45.2419,128.765 47,126.5C 48.2692,127.905 48.7692,129.571 48.5,131.5C 52.1667,131.5 55.8333,131.5 59.5,131.5C 60.4345,130.432 60.7678,129.099 60.5,127.5C 63.7602,130.376 67.5936,131.709 72,131.5C 76.7674,131.864 80.6008,130.197 83.5,126.5C 84.1719,127.949 84.8386,129.282 85.5,130.5C 88.9619,131.482 92.6286,131.815 96.5,131.5C 96.8128,127.958 96.4794,124.625 95.5,121.5C 94.875,118.417 94.5417,115.251 94.5,112C 95.5895,105.897 96.0895,99.7299 96,93.5C 92.9433,92.5495 89.7766,92.2161 86.5,92.5C 89.5,91.8333 92.5,91.1667 95.5,90.5 Z"/></g>
<g><path style="opacity:0.329" fill="#8d8d8d" d="M 126.5,133.5 C 127.568,132.566 128.901,132.232 130.5,132.5C 130.5,134.167 130.5,135.833 130.5,137.5C 129.566,136.432 129.232,135.099 129.5,133.5C 128.5,133.5 127.5,133.5 126.5,133.5 Z"/></g>
<g><path style="opacity:0.569" fill="#535353" d="M 232.5,133.5 C 233.434,134.568 233.768,135.901 233.5,137.5C 239.026,137.179 244.36,137.512 249.5,138.5C 243.833,138.5 238.167,138.5 232.5,138.5C 232.5,136.833 232.5,135.167 232.5,133.5 Z"/></g>
<g><path style="opacity:0.471" fill="#8a838d" d="M 29.5,139.5 C 34.5231,140.69 39.5231,140.69 44.5,139.5C 44.5,139.833 44.5,140.167 44.5,140.5C 42.2545,141.107 39.9212,141.44 37.5,141.5C 34.4733,141.713 31.8066,141.047 29.5,139.5 Z"/></g>
</svg>
